<svg xmlns="http://www.w3.org/2000/svg" width="999.994" height="253.085" viewBox="0 0 162 41">
  <defs>
    <style>
      .cls-1 {
        fill: #333;
        fill-rule: evenodd;
      }
    </style>
  </defs>
  <path id="LOGO_のコピー" data-name="LOGO のコピー" class="cls-1" d="M20.292,203.138a60.956,60.956,0,0,1,7.125.338v-7.824a55.937,55.937,0,0,1-7.125.338H7.39V171.213a47.214,47.214,0,0,1,.385-7.341H-0.987A52.862,52.862,0,0,1-.6,171.31v25.26a41.1,41.1,0,0,1-.385,6.713c1.781-.1,3.563-0.145,6.547-0.145H20.292ZM53.17,163.05c-11.362,0-18.679,7.97-18.679,20.382,0,12.51,7.318,20.576,18.679,20.576,11.265,0,18.679-8.163,18.679-20.624,0-6.327-1.926-11.736-5.536-15.31C62.991,164.693,58.61,163.05,53.17,163.05ZM53.218,197c-6.451,0-10.5-5.264-10.5-13.668,0-8.163,4.044-13.331,10.447-13.331a9.388,9.388,0,0,1,6.836,2.705c2.311,2.319,3.563,5.989,3.563,10.722C63.569,191.836,59.621,197,53.218,197Zm54.156-8.742v6.762A14.048,14.048,0,0,1,99.816,197c-3.37,0-5.97-1.014-7.7-2.994-2.07-2.367-3.177-6.086-3.177-10.722,0-4.734,1.155-8.308,3.37-10.626a9.39,9.39,0,0,1,6.788-2.705,8.749,8.749,0,0,1,5.2,1.3c1.4,0.918,2.119,1.98,2.889,4.2l8.136-2.028a14.524,14.524,0,0,0-3.514-5.941A16.524,16.524,0,0,0,99.864,163a19.77,19.77,0,0,0-9.965,2.27c-5.873,3.236-9.243,9.757-9.243,17.967,0,5.941,1.685,11.4,4.622,14.925,3.225,3.767,8.232,5.8,14.443,5.8a30.885,30.885,0,0,0,7.7-1.014,26.246,26.246,0,0,0,7.8-3.477,43.213,43.213,0,0,1-.337-6.666v-5.264a43.211,43.211,0,0,1,.337-6.279,57.569,57.569,0,0,1-5.97.242h-3.177a38.186,38.186,0,0,1-6.018-.29V188.5a31.78,31.78,0,0,1,4.862-.242h2.455Zm35.959-25.212c-11.362,0-18.679,7.97-18.679,20.382,0,12.51,7.317,20.576,18.679,20.576,11.265,0,18.679-8.163,18.679-20.624,0-6.327-1.925-11.736-5.536-15.31C153.154,164.693,148.773,163.05,143.333,163.05ZM143.381,197c-6.451,0-10.5-5.264-10.5-13.668,0-8.163,4.044-13.331,10.447-13.331a9.387,9.387,0,0,1,6.836,2.705c2.311,2.319,3.563,5.989,3.563,10.722C153.732,191.836,149.784,197,143.381,197Z" transform="translate(0 -163)"/>
</svg>
