<svg id="logo_のコピー_2" data-name="logo のコピー 2" xmlns="http://www.w3.org/2000/svg" width="288.531" height="81.906" viewBox="0 0 288.531 81.906">
  <defs>
    <style>
      .cls-1 {
        fill: #fff;
        fill-rule: evenodd;
      }
    </style>
  </defs>
  <path id="Web_designer" data-name="Web designer" class="cls-1" d="M82.117,50.794L85,40.265a63.161,63.161,0,0,0,1.56-6.6h0.06a60.874,60.874,0,0,0,1.32,6.6l2.55,10.53h2.73l5.73-20.219h-2.67l-2.67,10.2c-0.63,2.52-1.2,4.77-1.62,6.99h-0.06c-0.3-2.13-.84-4.53-1.41-6.93l-2.46-10.26h-2.73l-2.7,10.2c-0.69,2.61-1.32,5.01-1.65,7.02h-0.06c-0.36-1.95-.9-4.47-1.5-6.99l-2.4-10.23h-2.76l5.13,20.219h2.73Zm33.93-6.78a9.955,9.955,0,0,0,.09-1.23c0-2.67-1.26-6.84-6-6.84-4.23,0-6.81,3.45-6.81,7.83s2.67,7.32,7.14,7.32a11.761,11.761,0,0,0,4.83-.9l-0.45-1.89a9.548,9.548,0,0,1-4.02.75c-2.64,0-4.92-1.47-4.98-5.04h10.2Zm-10.17-1.89c0.21-1.83,1.38-4.29,4.05-4.29,2.97,0,3.69,2.61,3.66,4.29h-7.71Zm18.69,8.67,0.12-2.4h0.09a5.172,5.172,0,0,0,4.859,2.73c3.24,0,6.51-2.58,6.51-7.77,0.03-4.41-2.52-7.41-6.12-7.41a5.408,5.408,0,0,0-4.949,2.67h-0.06V29.5h-2.61V47.045c0,1.29-.06,2.76-0.12,3.75h2.28Zm0.45-8.43a5.2,5.2,0,0,1,.15-1.08,4.209,4.209,0,0,1,4.019-3.24c2.82,0,4.32,2.49,4.32,5.4,0,3.33-1.65,5.58-4.41,5.58a4.073,4.073,0,0,1-3.959-3.09,4.941,4.941,0,0,1-.12-0.96v-2.61ZM161.736,29.5v8.67h-0.06a4.855,4.855,0,0,0-4.38-2.22c-3.54,0-6.54,2.97-6.51,7.8,0,4.41,2.7,7.38,6.21,7.38a5.371,5.371,0,0,0,4.95-2.85h0.06l0.12,2.52H164.5c-0.09-.99-0.12-2.46-0.12-3.75V29.5h-2.639Zm0,15.209a4.586,4.586,0,0,1-.12,1.14,3.969,3.969,0,0,1-3.87,3.15c-2.85,0-4.29-2.43-4.29-5.37,0-3.21,1.62-5.61,4.35-5.61a3.883,3.883,0,0,1,3.81,3.06,4.66,4.66,0,0,1,.12,1.11V44.7Zm21.689-.69a9.955,9.955,0,0,0,.09-1.23c0-2.67-1.26-6.84-6-6.84-4.23,0-6.81,3.45-6.81,7.83s2.67,7.32,7.14,7.32a11.755,11.755,0,0,0,4.829-.9l-0.45-1.89a9.543,9.543,0,0,1-4.019.75c-2.64,0-4.92-1.47-4.98-5.04h10.2Zm-10.169-1.89c0.21-1.83,1.38-4.29,4.05-4.29,2.97,0,3.689,2.61,3.659,4.29h-7.709Zm15.51,7.98a8.279,8.279,0,0,0,4.079.99c3.45,0,5.43-1.8,5.43-4.35,0-2.16-1.29-3.42-3.81-4.38-1.889-.72-2.759-1.26-2.759-2.46,0-1.08.87-1.98,2.429-1.98a5.652,5.652,0,0,1,2.97.84l0.66-1.92a7.247,7.247,0,0,0-3.57-.9c-3.119,0-5.009,1.92-5.009,4.26,0,1.74,1.23,3.18,3.839,4.11,1.95,0.72,2.7,1.41,2.7,2.67,0,1.2-.9,2.16-2.82,2.16a6.919,6.919,0,0,1-3.479-1.05Zm18.539,0.69V36.275h-2.639v14.52h2.639Zm-1.32-20.249a1.608,1.608,0,0,0-1.649,1.65A1.635,1.635,0,1,0,205.985,30.545Zm18.9,5.73-0.12,2.19h-0.06a4.829,4.829,0,0,0-4.53-2.52c-3.33,0-6.54,2.79-6.54,7.71,0,4.02,2.58,7.08,6.18,7.08a5.183,5.183,0,0,0,4.62-2.43h0.06v1.62c0,3.66-1.98,5.07-4.68,5.07a8.188,8.188,0,0,1-4.26-1.14l-0.66,2.01a9.372,9.372,0,0,0,4.83,1.2,7.7,7.7,0,0,0,5.28-1.74c1.41-1.26,2.07-3.3,2.07-6.63v-8.43c0-1.77.06-2.94,0.12-3.99h-2.31Zm-0.42,8.34a4.592,4.592,0,0,1-.21,1.41,3.859,3.859,0,0,1-3.66,2.7c-2.85,0-4.29-2.37-4.29-5.22,0-3.36,1.8-5.49,4.32-5.49a3.8,3.8,0,0,1,3.69,2.79,3.759,3.759,0,0,1,.15,1.2v2.61Zm9.99,6.18h2.64v-8.73a3.8,3.8,0,0,1,.18-1.23,3.751,3.751,0,0,1,3.54-2.7c2.49,0,3.36,1.95,3.36,4.29v8.37h2.64v-8.67c0-4.98-3.12-6.18-5.13-6.18a5.34,5.34,0,0,0-4.8,2.73h-0.06l-0.15-2.4h-2.34c0.09,1.2.12,2.43,0.12,3.93v10.59Zm31.319-6.78a9.955,9.955,0,0,0,.09-1.23c0-2.67-1.26-6.84-6-6.84-4.23,0-6.81,3.45-6.81,7.83s2.67,7.32,7.14,7.32a11.759,11.759,0,0,0,4.829-.9l-0.45-1.89a9.547,9.547,0,0,1-4.019.75c-2.64,0-4.92-1.47-4.98-5.04h10.2Zm-10.169-1.89c0.21-1.83,1.38-4.29,4.05-4.29,2.969,0,3.689,2.61,3.659,4.29h-7.709Zm16.53,8.67h2.609v-7.74a7.431,7.431,0,0,1,.12-1.23c0.36-1.98,1.68-3.39,3.54-3.39a3.966,3.966,0,0,1,.9.09v-2.49a2.856,2.856,0,0,0-.75-0.09,4.356,4.356,0,0,0-4.02,3.18h-0.12l-0.09-2.85h-2.309c0.09,1.35.12,2.82,0.12,4.53v9.99Z" transform="translate(-32.375 -29.5)"/>
  <path id="ISHIBASHI" class="cls-1" d="M32.367,70.356v40.438h5.22V70.356h-5.22Zm18.3,38.458c2.16,1.44,6.42,2.58,10.32,2.58,9.54,0,14.159-5.4,14.159-11.639,0-5.94-3.48-9.24-10.32-11.88-5.58-2.16-8.04-4.02-8.04-7.8,0-2.76,2.1-6.06,7.62-6.06a16.1,16.1,0,0,1,7.68,1.92l1.44-4.26a18.375,18.375,0,0,0-8.94-1.98c-7.86,0-13.079,4.68-13.079,10.98,0,5.7,4.08,9.12,10.679,11.459,5.46,2.1,7.62,4.26,7.62,8.04,0,4.08-3.12,6.9-8.46,6.9a18.5,18.5,0,0,1-9.36-2.64Zm37.62-38.458v40.438h5.22V91.835h19.559v18.959h5.28V70.356h-5.28V87.275H93.507V70.356h-5.22Zm45.119,0v40.438h5.22V70.356h-5.22Zm20.34,40.318a61.024,61.024,0,0,0,8.1.48c6.6,0,11.159-1.2,13.979-3.78a10.9,10.9,0,0,0,3.42-8.1c0-6-4.5-9.18-8.339-10.14v-0.12c4.259-1.56,6.839-4.98,6.839-8.88a8.478,8.478,0,0,0-3.36-7.14c-2.519-2.04-5.879-2.94-11.1-2.94a50.582,50.582,0,0,0-9.54.84v39.778Zm5.22-36.238a22.391,22.391,0,0,1,4.62-.36c5.28,0,8.879,1.86,8.879,6.6,0,3.9-3.239,6.78-8.759,6.78h-4.74V74.436Zm0,16.979h4.32c5.7,0,10.439,2.28,10.439,7.8,0,5.88-4.979,7.86-10.379,7.86a27.893,27.893,0,0,1-4.38-.24V91.415Zm54.179,6.66,4.32,12.719h5.58l-13.8-40.438h-6.3l-13.739,40.438h5.4l4.2-12.719h14.339ZM199.885,94l3.96-11.7c0.78-2.46,1.44-4.92,2.04-7.32h0.12c0.6,2.34,1.2,4.74,2.1,7.38L212.065,94h-12.18Zm33.061,14.819c2.16,1.44,6.42,2.58,10.319,2.58,9.54,0,14.16-5.4,14.16-11.639,0-5.94-3.48-9.24-10.32-11.88-5.58-2.16-8.039-4.02-8.039-7.8,0-2.76,2.1-6.06,7.619-6.06a16.106,16.106,0,0,1,7.68,1.92l1.44-4.26a18.376,18.376,0,0,0-8.94-1.98c-7.859,0-13.079,4.68-13.079,10.98,0,5.7,4.08,9.12,10.679,11.459,5.46,2.1,7.62,4.26,7.62,8.04,0,4.08-3.12,6.9-8.46,6.9a18.5,18.5,0,0,1-9.359-2.64Zm37.62-38.458v40.438h5.219V91.835h19.56v18.959h5.279V70.356h-5.279V87.275h-19.56V70.356h-5.219Zm45.119,0v40.438h5.22V70.356h-5.22Z" transform="translate(-32.375 -29.5)"/>
</svg>
