<svg xmlns="http://www.w3.org/2000/svg" width="998.833" height="251.542" viewBox="0 0 161.812 40.75">
  <defs>
    <style>
      .cls-1 {
        fill: #fff;
        fill-rule: evenodd;
      }
    </style>
  </defs>
  <path id="LOGO" class="cls-1" d="M20.512,40.456a60.936,60.936,0,0,1,7.1.336V33.015a56.032,56.032,0,0,1-7.1.336H7.647V8.725a46.78,46.78,0,0,1,.384-7.3H-0.706A52.382,52.382,0,0,1-.322,8.821V33.928A40.728,40.728,0,0,1-.706,40.6c1.776-.1,3.552-0.144,6.529-0.144H20.512ZM53.3,0.613C41.967,0.613,34.67,8.533,34.67,20.87c0,12.433,7.3,20.45,18.626,20.45,11.233,0,18.626-8.113,18.626-20.5,0-6.289-1.92-11.665-5.52-15.217C63.089,2.245,58.72.613,53.3,0.613ZM53.344,34.36c-6.433,0-10.465-5.233-10.465-13.585,0-8.113,4.032-13.249,10.417-13.249a9.377,9.377,0,0,1,6.817,2.688c2.3,2.3,3.552,5.953,3.552,10.657C63.665,29.223,59.728,34.36,53.344,34.36Zm54-8.689v6.721a14.047,14.047,0,0,1-7.537,1.968c-3.36,0-5.953-1.008-7.681-2.976-2.064-2.352-3.168-6.048-3.168-10.657,0-4.7,1.152-8.257,3.36-10.561a9.38,9.38,0,0,1,6.769-2.688,8.745,8.745,0,0,1,5.185,1.3c1.392,0.912,2.112,1.968,2.88,4.176l8.113-2.016a14.415,14.415,0,0,0-3.5-5.9A16.5,16.5,0,0,0,99.855.565a19.76,19.76,0,0,0-9.937,2.256c-5.856,3.216-9.217,9.7-9.217,17.858,0,5.9,1.68,11.329,4.608,14.833,3.216,3.744,8.209,5.761,14.4,5.761a30.888,30.888,0,0,0,7.681-1.008,26.237,26.237,0,0,0,7.777-3.456,42.822,42.822,0,0,1-.336-6.625V24.951a42.854,42.854,0,0,1,.336-6.241,57.551,57.551,0,0,1-5.953.24h-3.168a38.166,38.166,0,0,1-6-.288v7.249a31.8,31.8,0,0,1,4.849-.24h2.448ZM143.2,0.613c-11.329,0-18.626,7.921-18.626,20.258,0,12.433,7.3,20.45,18.626,20.45,11.233,0,18.626-8.113,18.626-20.5,0-6.289-1.92-11.665-5.521-15.217C152.992,2.245,148.624.613,143.2,0.613Zm0.048,33.747c-6.432,0-10.465-5.233-10.465-13.585,0-8.113,4.033-13.249,10.417-13.249a9.378,9.378,0,0,1,6.817,2.688c2.3,2.3,3.552,5.953,3.552,10.657C153.568,29.223,149.632,34.36,143.247,34.36Z" transform="translate(0 -0.563)"/>
</svg>
